<svg width="163" height="56" viewBox="0 0 163 56" fill="none" xmlns="http://www.w3.org/2000/svg">
<g filter="url(#filter0_d_36_1313)">
<rect x="8" y="8" width="143" height="36" rx="5" fill="#6A55FE" shape-rendering="crispEdges"/>
<path d="M24.6328 30.0039L24.627 26.6406H21.5742V27.8711H22.9863L22.9805 29.418C22.9375 29.4688 22.873 29.5176 22.7871 29.5645C22.7051 29.6074 22.6094 29.6465 22.5 29.6816C22.3906 29.7168 22.2734 29.7441 22.1484 29.7637C22.0234 29.7832 21.8965 29.793 21.7676 29.793C21.5566 29.7891 21.3672 29.7559 21.1992 29.6934C21.0352 29.627 20.8906 29.5312 20.7656 29.4062C20.6914 29.332 20.623 29.248 20.5605 29.1543C20.502 29.0566 20.4492 28.9512 20.4023 28.8379C20.3281 28.6426 20.2695 28.418 20.2266 28.1641C20.1875 27.9102 20.168 27.6289 20.168 27.3203V26.1484C20.168 25.9023 20.1816 25.6738 20.209 25.4629C20.2402 25.252 20.2832 25.0605 20.3379 24.8887C20.4082 24.666 20.4961 24.4727 20.6016 24.3086C20.7109 24.1445 20.832 24.0117 20.9648 23.9102C21.0664 23.8359 21.1758 23.7793 21.293 23.7402C21.4102 23.7012 21.5312 23.6816 21.6562 23.6816C21.8867 23.6816 22.084 23.7129 22.248 23.7754C22.416 23.834 22.5547 23.9238 22.6641 24.0449C22.7617 24.1543 22.8379 24.2891 22.8926 24.4492C22.9512 24.6094 22.9941 24.793 23.0215 25H24.627C24.584 24.5898 24.4922 24.2207 24.3516 23.8926C24.2148 23.5645 24.0234 23.2852 23.7773 23.0547C23.5312 22.8281 23.2285 22.6543 22.8691 22.5332C22.5137 22.4121 22.0957 22.3516 21.6152 22.3516C21.3027 22.3516 21.0059 22.3945 20.7246 22.4805C20.4434 22.5664 20.1836 22.6934 19.9453 22.8613C19.7422 23.0098 19.5547 23.1855 19.3828 23.3887C19.2148 23.5918 19.0664 23.8203 18.9375 24.0742C18.8008 24.3594 18.6953 24.6777 18.6211 25.0293C18.5469 25.377 18.5098 25.7539 18.5098 26.1602V27.3203C18.5098 27.7461 18.5469 28.1406 18.6211 28.5039C18.6992 28.8672 18.8125 29.1934 18.9609 29.4824C19.0898 29.7441 19.2461 29.9766 19.4297 30.1797C19.6172 30.3828 19.8242 30.5547 20.0508 30.6953C20.2812 30.832 20.5332 30.9355 20.8066 31.0059C21.084 31.0801 21.3789 31.1172 21.6914 31.1172C22.0508 31.1172 22.3867 31.084 22.6992 31.0176C23.0117 30.9512 23.2949 30.8633 23.5488 30.7539C23.7988 30.6484 24.0156 30.5293 24.1992 30.3965C24.3828 30.2637 24.5273 30.1328 24.6328 30.0039ZM31.9277 27.3613V26.1191C31.9277 25.7324 31.8906 25.3672 31.8164 25.0234C31.7461 24.6797 31.6426 24.3633 31.5059 24.0742C31.3809 23.8203 31.2305 23.5879 31.0547 23.377C30.8828 23.166 30.6816 22.9863 30.4512 22.8379C30.2207 22.6816 29.9609 22.5625 29.6719 22.4805C29.3867 22.3945 29.0801 22.3516 28.752 22.3516C28.4277 22.3516 28.127 22.3926 27.8496 22.4746C27.5723 22.5566 27.3223 22.6738 27.0996 22.8262C26.873 22.9824 26.6719 23.1699 26.4961 23.3887C26.3242 23.6074 26.1777 23.8516 26.0566 24.1211C25.9316 24.4062 25.8359 24.7168 25.7695 25.0527C25.707 25.3887 25.6758 25.7441 25.6758 26.1191V27.3613C25.6758 27.7129 25.7031 28.0469 25.7578 28.3633C25.8164 28.6797 25.9004 28.9727 26.0098 29.2422C26.1309 29.5352 26.2812 29.7988 26.4609 30.0332C26.6406 30.2637 26.8438 30.4609 27.0703 30.625C27.3008 30.7812 27.5566 30.9023 27.8379 30.9883C28.1191 31.0742 28.4258 31.1172 28.7578 31.1172C29.0703 31.1172 29.3613 31.0781 29.6309 31C29.9043 30.9258 30.1543 30.8203 30.3809 30.6836C30.6309 30.5273 30.8535 30.332 31.0488 30.0977C31.2441 29.8633 31.4082 29.6055 31.541 29.3242C31.666 29.043 31.7617 28.7383 31.8281 28.4102C31.8945 28.0781 31.9277 27.7285 31.9277 27.3613ZM30.2578 26.1074V27.3613C30.2578 27.5723 30.2461 27.7754 30.2227 27.9707C30.2031 28.166 30.1719 28.3457 30.1289 28.5098C30.0742 28.7207 30 28.9102 29.9062 29.0781C29.8164 29.2422 29.7051 29.3789 29.5723 29.4883C29.4668 29.5781 29.3457 29.6465 29.209 29.6934C29.0723 29.7402 28.9219 29.7637 28.7578 29.7637C28.5859 29.7637 28.4316 29.7383 28.2949 29.6875C28.1621 29.6367 28.043 29.5645 27.9375 29.4707C27.8242 29.3652 27.7246 29.2285 27.6387 29.0605C27.5566 28.8887 27.4941 28.6992 27.4512 28.4922C27.4121 28.3281 27.3848 28.1504 27.3691 27.959C27.3535 27.7676 27.3457 27.5684 27.3457 27.3613V26.1074C27.3457 25.8887 27.3535 25.6797 27.3691 25.4805C27.3887 25.2812 27.418 25.0977 27.457 24.9297C27.5078 24.7109 27.5781 24.5195 27.668 24.3555C27.7617 24.1914 27.875 24.0547 28.0078 23.9453C28.1055 23.8711 28.2148 23.8145 28.3359 23.7754C28.4609 23.7363 28.5996 23.7168 28.752 23.7168C28.9121 23.7168 29.0566 23.7383 29.1855 23.7812C29.3184 23.8242 29.4375 23.8848 29.543 23.9629C29.6758 24.0684 29.791 24.2051 29.8887 24.373C29.9863 24.5371 30.0645 24.7246 30.123 24.9355C30.1699 25.1035 30.2031 25.2871 30.2227 25.4863C30.2461 25.6816 30.2578 25.8887 30.2578 26.1074ZM46.6582 23.8105V22.4688H39.7793V23.8105H42.375V31H44.0273V23.8105H46.6582ZM53.5488 27.3613V26.1191C53.5488 25.7324 53.5117 25.3672 53.4375 25.0234C53.3672 24.6797 53.2637 24.3633 53.127 24.0742C53.002 23.8203 52.8516 23.5879 52.6758 23.377C52.5039 23.166 52.3027 22.9863 52.0723 22.8379C51.8418 22.6816 51.582 22.5625 51.293 22.4805C51.0078 22.3945 50.7012 22.3516 50.373 22.3516C50.0488 22.3516 49.748 22.3926 49.4707 22.4746C49.1934 22.5566 48.9434 22.6738 48.7207 22.8262C48.4941 22.9824 48.293 23.1699 48.1172 23.3887C47.9453 23.6074 47.7988 23.8516 47.6777 24.1211C47.5527 24.4062 47.457 24.7168 47.3906 25.0527C47.3281 25.3887 47.2969 25.7441 47.2969 26.1191V27.3613C47.2969 27.7129 47.3242 28.0469 47.3789 28.3633C47.4375 28.6797 47.5215 28.9727 47.6309 29.2422C47.752 29.5352 47.9023 29.7988 48.082 30.0332C48.2617 30.2637 48.4648 30.4609 48.6914 30.625C48.9219 30.7812 49.1777 30.9023 49.459 30.9883C49.7402 31.0742 50.0469 31.1172 50.3789 31.1172C50.6914 31.1172 50.9824 31.0781 51.252 31C51.5254 30.9258 51.7754 30.8203 52.002 30.6836C52.252 30.5273 52.4746 30.332 52.6699 30.0977C52.8652 29.8633 53.0293 29.6055 53.1621 29.3242C53.2871 29.043 53.3828 28.7383 53.4492 28.4102C53.5156 28.0781 53.5488 27.7285 53.5488 27.3613ZM51.8789 26.1074V27.3613C51.8789 27.5723 51.8672 27.7754 51.8438 27.9707C51.8242 28.166 51.793 28.3457 51.75 28.5098C51.6953 28.7207 51.6211 28.9102 51.5273 29.0781C51.4375 29.2422 51.3262 29.3789 51.1934 29.4883C51.0879 29.5781 50.9668 29.6465 50.8301 29.6934C50.6934 29.7402 50.543 29.7637 50.3789 29.7637C50.207 29.7637 50.0527 29.7383 49.916 29.6875C49.7832 29.6367 49.6641 29.5645 49.5586 29.4707C49.4453 29.3652 49.3457 29.2285 49.2598 29.0605C49.1777 28.8887 49.1152 28.6992 49.0723 28.4922C49.0332 28.3281 49.0059 28.1504 48.9902 27.959C48.9746 27.7676 48.9668 27.5684 48.9668 27.3613V26.1074C48.9668 25.8887 48.9746 25.6797 48.9902 25.4805C49.0098 25.2812 49.0391 25.0977 49.0781 24.9297C49.1289 24.7109 49.1992 24.5195 49.2891 24.3555C49.3828 24.1914 49.4961 24.0547 49.6289 23.9453C49.7266 23.8711 49.8359 23.8145 49.957 23.7754C50.082 23.7363 50.2207 23.7168 50.373 23.7168C50.5332 23.7168 50.6777 23.7383 50.8066 23.7812C50.9395 23.8242 51.0586 23.8848 51.1641 23.9629C51.2969 24.0684 51.4121 24.2051 51.5098 24.373C51.6074 24.5371 51.6855 24.7246 51.7441 24.9355C51.791 25.1035 51.8242 25.2871 51.8438 25.4863C51.8672 25.6816 51.8789 25.8887 51.8789 26.1074ZM64.9043 27.8125L66.5098 31H68.2734V30.9238L66.4395 27.4023C66.6738 27.2969 66.8848 27.1719 67.0723 27.0273C67.2637 26.8828 67.4277 26.7129 67.5645 26.5176C67.6973 26.3262 67.7988 26.1094 67.8691 25.8672C67.9434 25.6211 67.9805 25.3457 67.9805 25.041C67.9805 24.6191 67.9062 24.248 67.7578 23.9277C67.6133 23.6074 67.4062 23.3398 67.1367 23.125C66.8633 22.9102 66.5352 22.748 66.1523 22.6387C65.7695 22.5254 65.3418 22.4688 64.8691 22.4688H62.0098V31H63.6562V27.8125H64.9043ZM63.6562 26.4766V23.8047H64.8691C65.0957 23.8047 65.2969 23.832 65.4727 23.8867C65.6484 23.9414 65.7969 24.0195 65.918 24.1211C66.0547 24.2344 66.1562 24.3789 66.2227 24.5547C66.293 24.7266 66.3281 24.9258 66.3281 25.1523C66.3281 25.3398 66.3008 25.5098 66.2461 25.6621C66.1953 25.8145 66.1191 25.9453 66.0176 26.0547C65.8965 26.1914 65.7383 26.2969 65.543 26.3711C65.3516 26.4414 65.1289 26.4766 64.875 26.4766H63.6562ZM74.4668 27.2617V25.9609H70.9629V23.8105H75.041V22.4688H69.3105V31H75.0586V29.6699H70.9629V27.2617H74.4668ZM80.8535 28.7734C80.8535 28.9258 80.8223 29.0664 80.7598 29.1953C80.6973 29.3203 80.6074 29.4277 80.4902 29.5176C80.373 29.6074 80.2285 29.6777 80.0566 29.7285C79.8887 29.7793 79.6953 29.8047 79.4766 29.8047C79.2305 29.8047 79.0039 29.7773 78.7969 29.7227C78.5938 29.668 78.4199 29.582 78.2754 29.4648C78.127 29.3477 78.0117 29.1973 77.9297 29.0137C77.8477 28.8301 77.8027 28.6094 77.7949 28.3516H76.1777C76.1777 28.793 76.2617 29.1777 76.4297 29.5059C76.6016 29.834 76.834 30.1191 77.127 30.3613C77.4355 30.6074 77.7969 30.7949 78.2109 30.9238C78.6289 31.0488 79.0508 31.1113 79.4766 31.1113C79.9102 31.1113 80.3105 31.0605 80.6777 30.959C81.0449 30.8535 81.3613 30.6992 81.627 30.4961C81.8926 30.2969 82.0996 30.0527 82.248 29.7637C82.4004 29.4707 82.4766 29.1367 82.4766 28.7617C82.4766 28.3281 82.377 27.9453 82.1777 27.6133C81.9785 27.2812 81.7109 26.9902 81.375 26.7402C81.1523 26.5879 80.9082 26.4531 80.6426 26.3359C80.377 26.2188 80.0977 26.1191 79.8047 26.0371C79.5312 25.9629 79.2852 25.8828 79.0664 25.7969C78.8516 25.7109 78.668 25.6152 78.5156 25.5098C78.3633 25.4082 78.2461 25.293 78.1641 25.1641C78.0859 25.0352 78.0469 24.8906 78.0469 24.7305C78.0469 24.5781 78.0762 24.4375 78.1348 24.3086C78.1973 24.1758 78.2871 24.0605 78.4043 23.9629C78.5215 23.8691 78.6641 23.7969 78.832 23.7461C79.0039 23.6914 79.1992 23.6641 79.418 23.6641C79.6562 23.6641 79.8633 23.6973 80.0391 23.7637C80.2188 23.8262 80.3691 23.9141 80.4902 24.0273C80.6074 24.1445 80.6953 24.2832 80.7539 24.4434C80.8164 24.6035 80.8516 24.7793 80.8594 24.9707H82.4648C82.4648 24.5879 82.3906 24.2363 82.2422 23.916C82.0938 23.5957 81.8867 23.3184 81.6211 23.084C81.3555 22.8535 81.0371 22.6738 80.666 22.5449C80.2988 22.416 79.8926 22.3516 79.4473 22.3516C79.0176 22.3516 78.6191 22.4082 78.252 22.5215C77.8848 22.6309 77.5664 22.7891 77.2969 22.9961C77.0273 23.2031 76.8164 23.4531 76.6641 23.7461C76.5117 24.0391 76.4355 24.3652 76.4355 24.7246C76.4355 25.0371 76.4922 25.3262 76.6055 25.5918C76.7227 25.8574 76.8945 26.0996 77.1211 26.3184C77.3477 26.5371 77.6387 26.7383 77.9941 26.9219C78.3535 27.1055 78.7695 27.2617 79.2422 27.3906C79.5469 27.4727 79.8008 27.5625 80.0039 27.6602C80.2109 27.7539 80.3789 27.8574 80.5078 27.9707C80.6328 28.0879 80.7207 28.2129 80.7715 28.3457C80.8262 28.4785 80.8535 28.6211 80.8535 28.7734ZM89.3145 22.4688H87.6797L87.6738 28.123C87.6699 28.4004 87.6406 28.6445 87.5859 28.8555C87.5312 29.0664 87.4492 29.2422 87.3398 29.3828C87.2383 29.5195 87.1094 29.623 86.9531 29.6934C86.8008 29.7598 86.625 29.793 86.4258 29.793C86.2422 29.793 86.0801 29.7617 85.9395 29.6992C85.7988 29.6328 85.6797 29.5352 85.582 29.4062C85.4766 29.2656 85.3965 29.0879 85.3418 28.873C85.291 28.6582 85.2637 28.4082 85.2598 28.123L85.2539 22.4688H83.6074L83.6016 28.123C83.6016 28.5996 83.668 29.0254 83.8008 29.4004C83.9375 29.7715 84.1289 30.084 84.375 30.3379C84.6211 30.5918 84.916 30.7852 85.2598 30.918C85.6074 31.0508 85.9961 31.1172 86.4258 31.1172C86.8828 31.1172 87.2891 31.0508 87.6445 30.918C88.0039 30.7852 88.3086 30.5898 88.5586 30.332C88.8047 30.0781 88.9922 29.7656 89.1211 29.3945C89.2539 29.0234 89.3203 28.5996 89.3203 28.123L89.3145 22.4688ZM92.8594 22.4688H90.8145V31H92.3262V28.4746L92.2559 24.6426L93.2578 28.1875H94.0723L95.1914 24.4844L95.1211 28.4746V31H96.6328V22.4688H94.5879L93.668 25.6738L92.8594 22.4688ZM103.295 27.2617V25.9609H99.791V23.8105H103.869V22.4688H98.1387V31H103.887V29.6699H99.791V27.2617H103.295ZM114.211 27.8711H115.482C115.947 27.8711 116.367 27.8047 116.742 27.6719C117.117 27.5391 117.438 27.3535 117.703 27.1152C117.965 26.8809 118.166 26.6016 118.307 26.2773C118.451 25.9531 118.523 25.5996 118.523 25.2168C118.523 24.8066 118.451 24.4336 118.307 24.0977C118.166 23.7617 117.965 23.4727 117.703 23.2305C117.438 22.9922 117.117 22.8066 116.742 22.6738C116.367 22.5371 115.947 22.4688 115.482 22.4688H112.564V31H114.211V27.8711ZM114.211 26.5352V23.8047H115.482C115.717 23.8047 115.92 23.8418 116.092 23.916C116.264 23.9902 116.408 24.0918 116.525 24.2207C116.639 24.3496 116.723 24.5 116.777 24.6719C116.836 24.8438 116.865 25.0293 116.865 25.2285C116.865 25.4004 116.836 25.5664 116.777 25.7266C116.723 25.8828 116.639 26.0215 116.525 26.1426C116.408 26.2637 116.264 26.3594 116.092 26.4297C115.92 26.5 115.717 26.5352 115.482 26.5352H114.211ZM123.861 29.2188L124.359 31H126.094L123.352 22.4688H121.857L119.062 31H120.797L121.301 29.2188H123.861ZM121.705 27.8184L122.602 24.6777L123.475 27.8184H121.705ZM132.738 30.0039L132.732 26.6406H129.68V27.8711H131.092L131.086 29.418C131.043 29.4688 130.979 29.5176 130.893 29.5645C130.811 29.6074 130.715 29.6465 130.605 29.6816C130.496 29.7168 130.379 29.7441 130.254 29.7637C130.129 29.7832 130.002 29.793 129.873 29.793C129.662 29.7891 129.473 29.7559 129.305 29.6934C129.141 29.627 128.996 29.5312 128.871 29.4062C128.797 29.332 128.729 29.248 128.666 29.1543C128.607 29.0566 128.555 28.9512 128.508 28.8379C128.434 28.6426 128.375 28.418 128.332 28.1641C128.293 27.9102 128.273 27.6289 128.273 27.3203V26.1484C128.273 25.9023 128.287 25.6738 128.314 25.4629C128.346 25.252 128.389 25.0605 128.443 24.8887C128.514 24.666 128.602 24.4727 128.707 24.3086C128.816 24.1445 128.938 24.0117 129.07 23.9102C129.172 23.8359 129.281 23.7793 129.398 23.7402C129.516 23.7012 129.637 23.6816 129.762 23.6816C129.992 23.6816 130.189 23.7129 130.354 23.7754C130.521 23.834 130.66 23.9238 130.77 24.0449C130.867 24.1543 130.943 24.2891 130.998 24.4492C131.057 24.6094 131.1 24.793 131.127 25H132.732C132.689 24.5898 132.598 24.2207 132.457 23.8926C132.32 23.5645 132.129 23.2852 131.883 23.0547C131.637 22.8281 131.334 22.6543 130.975 22.5332C130.619 22.4121 130.201 22.3516 129.721 22.3516C129.408 22.3516 129.111 22.3945 128.83 22.4805C128.549 22.5664 128.289 22.6934 128.051 22.8613C127.848 23.0098 127.66 23.1855 127.488 23.3887C127.32 23.5918 127.172 23.8203 127.043 24.0742C126.906 24.3594 126.801 24.6777 126.727 25.0293C126.652 25.377 126.615 25.7539 126.615 26.1602V27.3203C126.615 27.7461 126.652 28.1406 126.727 28.5039C126.805 28.8672 126.918 29.1934 127.066 29.4824C127.195 29.7441 127.352 29.9766 127.535 30.1797C127.723 30.3828 127.93 30.5547 128.156 30.6953C128.387 30.832 128.639 30.9355 128.912 31.0059C129.189 31.0801 129.484 31.1172 129.797 31.1172C130.156 31.1172 130.492 31.084 130.805 31.0176C131.117 30.9512 131.4 30.8633 131.654 30.7539C131.904 30.6484 132.121 30.5293 132.305 30.3965C132.488 30.2637 132.633 30.1328 132.738 30.0039ZM139.33 27.2617V25.9609H135.826V23.8105H139.904V22.4688H134.174V31H139.922V29.6699H135.826V27.2617H139.33Z" fill="white"/>
</g>
<defs>
<filter id="filter0_d_36_1313" x="0" y="0" width="163" height="56" filterUnits="userSpaceOnUse" color-interpolation-filters="sRGB">
<feFlood flood-opacity="0" result="BackgroundImageFix"/>
<feColorMatrix in="SourceAlpha" type="matrix" values="0 0 0 0 0 0 0 0 0 0 0 0 0 0 0 0 0 0 127 0" result="hardAlpha"/>
<feOffset dx="2" dy="2"/>
<feGaussianBlur stdDeviation="5"/>
<feComposite in2="hardAlpha" operator="out"/>
<feColorMatrix type="matrix" values="0 0 0 0 0.415686 0 0 0 0 0.333333 0 0 0 0 0.996078 0 0 0 0.3 0"/>
<feBlend mode="normal" in2="BackgroundImageFix" result="effect1_dropShadow_36_1313"/>
<feBlend mode="normal" in="SourceGraphic" in2="effect1_dropShadow_36_1313" result="shape"/>
</filter>
</defs>
</svg>
